<svg xmlns="http://www.w3.org/2000/svg" width="920" height="220" viewBox="0 0 920 220">
<rect width="100%" height="100%" fill="#ffffff"/>

  <defs>
    <marker id="arrow" markerWidth="8" markerHeight="8" refX="6" refY="3" orient="auto">
      <path d="M0,0 L0,6 L6,3 z" fill="#111827"/>
    </marker>
  </defs>

<text x="40" y="30" font-size="14" font-family="Inter, Arial, sans-serif" fill="#111827">Salah satu bilangan di antara tanda garis (|) tidak sesuai pola. Tentukan bilangan tersebut!</text>
<text x="40" y="100" text-anchor="middle" font-size="20" font-family="Inter, Arial, sans-serif" fill="#111827">1</text>
<text x="120" y="100" text-anchor="middle" font-size="20" font-family="Inter, Arial, sans-serif" fill="#111827">5</text>
<text x="200" y="100" text-anchor="middle" font-size="20" font-family="Inter, Arial, sans-serif" fill="#111827">14</text>
<text x="280" y="100" text-anchor="middle" font-size="20" font-family="Inter, Arial, sans-serif" fill="#111827">30</text>
<text x="360" y="100" text-anchor="middle" font-size="20" font-family="Inter, Arial, sans-serif" fill="#111827">55</text>
<text x="440" y="100" text-anchor="middle" font-size="20" font-family="Inter, Arial, sans-serif" fill="#dc2626">75</text>
<text x="520" y="100" text-anchor="middle" font-size="20" font-family="Inter, Arial, sans-serif" fill="#111827">140</text>
<text x="600" y="100" text-anchor="middle" font-size="20" font-family="Inter, Arial, sans-serif" fill="#111827">204</text>
<text x="680" y="100" text-anchor="middle" font-size="20" font-family="Inter, Arial, sans-serif" fill="#111827">285</text>
<text x="760" y="100" text-anchor="middle" font-size="20" font-family="Inter, Arial, sans-serif" fill="#111827">385</text>
<text x="840" y="100" text-anchor="middle" font-size="20" font-family="Inter, Arial, sans-serif" fill="#111827">506</text>
<line x1="240" y1="70" x2="240" y2="130" stroke="#111827" stroke-width="2"/>
<line x1="720" y1="70" x2="720" y2="130" stroke="#111827" stroke-width="2"/>
<path d="M 40 125 Q 80 147 120 125" fill="none" stroke="#111827" stroke-width="1.5" marker-end="url(#arrow)"/>
<text x="80" y="160" text-anchor="middle" font-size="14" font-family="Inter, Arial, sans-serif" fill="#374151">+4</text>
<path d="M 120 125 Q 160 147 200 125" fill="none" stroke="#111827" stroke-width="1.5" marker-end="url(#arrow)"/>
<text x="160" y="160" text-anchor="middle" font-size="14" font-family="Inter, Arial, sans-serif" fill="#374151">+9</text>
<path d="M 200 125 Q 240 147 280 125" fill="none" stroke="#111827" stroke-width="1.5" marker-end="url(#arrow)"/>
<text x="240" y="160" text-anchor="middle" font-size="14" font-family="Inter, Arial, sans-serif" fill="#374151">+16</text>
<path d="M 280 125 Q 320 147 360 125" fill="none" stroke="#111827" stroke-width="1.5" marker-end="url(#arrow)"/>
<text x="320" y="160" text-anchor="middle" font-size="14" font-family="Inter, Arial, sans-serif" fill="#374151">+25</text>
<path d="M 360 125 Q 400 147 440 125" fill="none" stroke="#111827" stroke-width="1.5" marker-end="url(#arrow)"/>
<text x="400" y="160" text-anchor="middle" font-size="14" font-family="Inter, Arial, sans-serif" fill="#374151">+36</text>
<path d="M 440 125 Q 480 147 520 125" fill="none" stroke="#111827" stroke-width="1.5" marker-end="url(#arrow)"/>
<text x="480" y="160" text-anchor="middle" font-size="14" font-family="Inter, Arial, sans-serif" fill="#374151">+49</text>
<path d="M 520 125 Q 560 147 600 125" fill="none" stroke="#111827" stroke-width="1.5" marker-end="url(#arrow)"/>
<text x="560" y="160" text-anchor="middle" font-size="14" font-family="Inter, Arial, sans-serif" fill="#374151">+64</text>
<path d="M 600 125 Q 640 147 680 125" fill="none" stroke="#111827" stroke-width="1.5" marker-end="url(#arrow)"/>
<text x="640" y="160" text-anchor="middle" font-size="14" font-family="Inter, Arial, sans-serif" fill="#374151">+81</text>
<path d="M 680 125 Q 720 147 760 125" fill="none" stroke="#111827" stroke-width="1.5" marker-end="url(#arrow)"/>
<text x="720" y="160" text-anchor="middle" font-size="14" font-family="Inter, Arial, sans-serif" fill="#374151">+100</text>
<path d="M 760 125 Q 800 147 840 125" fill="none" stroke="#111827" stroke-width="1.5" marker-end="url(#arrow)"/>
<text x="800" y="160" text-anchor="middle" font-size="14" font-family="Inter, Arial, sans-serif" fill="#374151">+121</text>
<text x="40" y="200" font-size="14" font-family="Inter, Arial, sans-serif" fill="#111827">Bilangan salah ditandai merah (seharusnya 91).</text>
</svg>