<svg xmlns="http://www.w3.org/2000/svg" width="920" height="380" viewBox="0 0 920 380">
<rect width="100%" height="100%" fill="#ffffff"/>

      <defs>
        <marker id="arrow" markerWidth="8" markerHeight="8" refX="6" refY="3" orient="auto">
          <path d="M0,0 L0,6 L6,3 z" fill="#111827"/>
        </marker>
      </defs>
    
<text x="40" y="100" text-anchor="middle" font-size="20" font-family="Inter, Arial, sans-serif" fill="#111827">2</text>
<text x="120" y="100" text-anchor="middle" font-size="20" font-family="Inter, Arial, sans-serif" fill="#111827">4</text>
<text x="200" y="100" text-anchor="middle" font-size="20" font-family="Inter, Arial, sans-serif" fill="#111827">2</text>
<text x="280" y="100" text-anchor="middle" font-size="20" font-family="Inter, Arial, sans-serif" fill="#dc2626">5</text>
<text x="360" y="100" text-anchor="middle" font-size="20" font-family="Inter, Arial, sans-serif" fill="#111827">3</text>
<text x="440" y="100" text-anchor="middle" font-size="20" font-family="Inter, Arial, sans-serif" fill="#111827">12</text>
<text x="520" y="100" text-anchor="middle" font-size="20" font-family="Inter, Arial, sans-serif" fill="#111827">8</text>
<text x="600" y="100" text-anchor="middle" font-size="20" font-family="Inter, Arial, sans-serif" fill="#111827">40</text>
<text x="680" y="100" text-anchor="middle" font-size="20" font-family="Inter, Arial, sans-serif" fill="#111827">35</text>
<text x="760" y="100" text-anchor="middle" font-size="20" font-family="Inter, Arial, sans-serif" fill="#111827">210</text>
<text x="840" y="100" text-anchor="middle" font-size="20" font-family="Inter, Arial, sans-serif" fill="#111827">204</text>
<line x1="240" y1="70" x2="240" y2="130" stroke="#111827" stroke-width="2"/>
<line x1="640" y1="70" x2="640" y2="130" stroke="#111827" stroke-width="2"/>
<text x="280" y="70" text-anchor="middle" font-size="16" font-family="Inter, Arial, sans-serif" fill="#111827">A</text>
<text x="360" y="70" text-anchor="middle" font-size="16" font-family="Inter, Arial, sans-serif" fill="#111827">B</text>
<text x="440" y="70" text-anchor="middle" font-size="16" font-family="Inter, Arial, sans-serif" fill="#111827">C</text>
<text x="520" y="70" text-anchor="middle" font-size="16" font-family="Inter, Arial, sans-serif" fill="#111827">D</text>
<text x="600" y="70" text-anchor="middle" font-size="16" font-family="Inter, Arial, sans-serif" fill="#111827">E</text>
<text x="40" y="200" font-size="14" font-family="Inter, Arial, sans-serif" fill="#111827">Tips: Cermati pola deret angka. Ini merupakan pola template: x2 -2 x3 -3 x4 -4 x5 -5 x6 -6.</text>
<text x="40" y="222" text-anchor="middle" font-size="20" font-family="Inter, Arial, sans-serif" fill="#111827">2</text>
<text x="120" y="222" text-anchor="middle" font-size="20" font-family="Inter, Arial, sans-serif" fill="#111827">4</text>
<text x="200" y="222" text-anchor="middle" font-size="20" font-family="Inter, Arial, sans-serif" fill="#111827">2</text>
<text x="280" y="222" text-anchor="middle" font-size="20" font-family="Inter, Arial, sans-serif" fill="#dc2626">5</text>
<text x="360" y="222" text-anchor="middle" font-size="20" font-family="Inter, Arial, sans-serif" fill="#111827">3</text>
<text x="440" y="222" text-anchor="middle" font-size="20" font-family="Inter, Arial, sans-serif" fill="#111827">12</text>
<text x="520" y="222" text-anchor="middle" font-size="20" font-family="Inter, Arial, sans-serif" fill="#111827">8</text>
<text x="600" y="222" text-anchor="middle" font-size="20" font-family="Inter, Arial, sans-serif" fill="#111827">40</text>
<text x="680" y="222" text-anchor="middle" font-size="20" font-family="Inter, Arial, sans-serif" fill="#111827">35</text>
<text x="760" y="222" text-anchor="middle" font-size="20" font-family="Inter, Arial, sans-serif" fill="#111827">210</text>
<text x="840" y="222" text-anchor="middle" font-size="20" font-family="Inter, Arial, sans-serif" fill="#111827">204</text>
<path d="M 40 247 Q 80 269 120 247" fill="none" stroke="#111827" stroke-width="1.5" marker-end="url(#arrow)"/>
<text x="80" y="282" text-anchor="middle" font-size="14" font-family="Inter, Arial, sans-serif" fill="#374151">x2</text>
<path d="M 120 247 Q 160 269 200 247" fill="none" stroke="#111827" stroke-width="1.5" marker-end="url(#arrow)"/>
<text x="160" y="282" text-anchor="middle" font-size="14" font-family="Inter, Arial, sans-serif" fill="#374151">-2</text>
<path d="M 200 247 Q 240 269 280 247" fill="none" stroke="#111827" stroke-width="1.5" marker-end="url(#arrow)"/>
<text x="240" y="282" text-anchor="middle" font-size="14" font-family="Inter, Arial, sans-serif" fill="#374151">+3</text>
<path d="M 280 247 Q 320 269 360 247" fill="none" stroke="#111827" stroke-width="1.5" marker-end="url(#arrow)"/>
<text x="320" y="282" text-anchor="middle" font-size="14" font-family="Inter, Arial, sans-serif" fill="#374151">-2</text>
<path d="M 360 247 Q 400 269 440 247" fill="none" stroke="#111827" stroke-width="1.5" marker-end="url(#arrow)"/>
<text x="400" y="282" text-anchor="middle" font-size="14" font-family="Inter, Arial, sans-serif" fill="#374151">x4</text>
<path d="M 440 247 Q 480 269 520 247" fill="none" stroke="#111827" stroke-width="1.5" marker-end="url(#arrow)"/>
<text x="480" y="282" text-anchor="middle" font-size="14" font-family="Inter, Arial, sans-serif" fill="#374151">-4</text>
<path d="M 520 247 Q 560 269 600 247" fill="none" stroke="#111827" stroke-width="1.5" marker-end="url(#arrow)"/>
<text x="560" y="282" text-anchor="middle" font-size="14" font-family="Inter, Arial, sans-serif" fill="#374151">x5</text>
<path d="M 600 247 Q 640 269 680 247" fill="none" stroke="#111827" stroke-width="1.5" marker-end="url(#arrow)"/>
<text x="640" y="282" text-anchor="middle" font-size="14" font-family="Inter, Arial, sans-serif" fill="#374151">-5</text>
<path d="M 680 247 Q 720 269 760 247" fill="none" stroke="#111827" stroke-width="1.5" marker-end="url(#arrow)"/>
<text x="720" y="282" text-anchor="middle" font-size="14" font-family="Inter, Arial, sans-serif" fill="#374151">x6</text>
<path d="M 760 247 Q 800 269 840 247" fill="none" stroke="#111827" stroke-width="1.5" marker-end="url(#arrow)"/>
<text x="800" y="282" text-anchor="middle" font-size="14" font-family="Inter, Arial, sans-serif" fill="#374151">-6</text>
<line x1="240" y1="192" x2="240" y2="252" stroke="#111827" stroke-width="2"/>
<line x1="640" y1="192" x2="640" y2="252" stroke="#111827" stroke-width="2"/>
<text x="40" y="312" text-anchor="middle" font-size="20" font-family="Inter, Arial, sans-serif" fill="#111827">2</text>
<text x="120" y="312" text-anchor="middle" font-size="20" font-family="Inter, Arial, sans-serif" fill="#111827">4</text>
<text x="200" y="312" text-anchor="middle" font-size="20" font-family="Inter, Arial, sans-serif" fill="#111827">2</text>
<text x="280" y="312" text-anchor="middle" font-size="20" font-family="Inter, Arial, sans-serif" fill="#facc15">6</text>
<text x="360" y="312" text-anchor="middle" font-size="20" font-family="Inter, Arial, sans-serif" fill="#111827">3</text>
<text x="440" y="312" text-anchor="middle" font-size="20" font-family="Inter, Arial, sans-serif" fill="#111827">12</text>
<text x="520" y="312" text-anchor="middle" font-size="20" font-family="Inter, Arial, sans-serif" fill="#111827">8</text>
<text x="600" y="312" text-anchor="middle" font-size="20" font-family="Inter, Arial, sans-serif" fill="#111827">40</text>
<text x="680" y="312" text-anchor="middle" font-size="20" font-family="Inter, Arial, sans-serif" fill="#111827">35</text>
<text x="760" y="312" text-anchor="middle" font-size="20" font-family="Inter, Arial, sans-serif" fill="#111827">210</text>
<text x="840" y="312" text-anchor="middle" font-size="20" font-family="Inter, Arial, sans-serif" fill="#111827">204</text>
<path d="M 40 337 Q 80 359 120 337" fill="none" stroke="#111827" stroke-width="1.5" marker-end="url(#arrow)"/>
<text x="80" y="372" text-anchor="middle" font-size="14" font-family="Inter, Arial, sans-serif" fill="#374151">x2</text>
<path d="M 120 337 Q 160 359 200 337" fill="none" stroke="#111827" stroke-width="1.5" marker-end="url(#arrow)"/>
<text x="160" y="372" text-anchor="middle" font-size="14" font-family="Inter, Arial, sans-serif" fill="#374151">-2</text>
<path d="M 200 337 Q 240 359 280 337" fill="none" stroke="#111827" stroke-width="1.5" marker-end="url(#arrow)"/>
<text x="240" y="372" text-anchor="middle" font-size="14" font-family="Inter, Arial, sans-serif" fill="#374151">x3</text>
<path d="M 280 337 Q 320 359 360 337" fill="none" stroke="#111827" stroke-width="1.5" marker-end="url(#arrow)"/>
<text x="320" y="372" text-anchor="middle" font-size="14" font-family="Inter, Arial, sans-serif" fill="#374151">-3</text>
<path d="M 360 337 Q 400 359 440 337" fill="none" stroke="#111827" stroke-width="1.5" marker-end="url(#arrow)"/>
<text x="400" y="372" text-anchor="middle" font-size="14" font-family="Inter, Arial, sans-serif" fill="#374151">x4</text>
<path d="M 440 337 Q 480 359 520 337" fill="none" stroke="#111827" stroke-width="1.5" marker-end="url(#arrow)"/>
<text x="480" y="372" text-anchor="middle" font-size="14" font-family="Inter, Arial, sans-serif" fill="#374151">-4</text>
<path d="M 520 337 Q 560 359 600 337" fill="none" stroke="#111827" stroke-width="1.5" marker-end="url(#arrow)"/>
<text x="560" y="372" text-anchor="middle" font-size="14" font-family="Inter, Arial, sans-serif" fill="#374151">x5</text>
<path d="M 600 337 Q 640 359 680 337" fill="none" stroke="#111827" stroke-width="1.5" marker-end="url(#arrow)"/>
<text x="640" y="372" text-anchor="middle" font-size="14" font-family="Inter, Arial, sans-serif" fill="#374151">-5</text>
<path d="M 680 337 Q 720 359 760 337" fill="none" stroke="#111827" stroke-width="1.5" marker-end="url(#arrow)"/>
<text x="720" y="372" text-anchor="middle" font-size="14" font-family="Inter, Arial, sans-serif" fill="#374151">x6</text>
<path d="M 760 337 Q 800 359 840 337" fill="none" stroke="#111827" stroke-width="1.5" marker-end="url(#arrow)"/>
<text x="800" y="372" text-anchor="middle" font-size="14" font-family="Inter, Arial, sans-serif" fill="#374151">-6</text>
<line x1="240" y1="282" x2="240" y2="342" stroke="#111827" stroke-width="2"/>
<line x1="640" y1="282" x2="640" y2="342" stroke="#111827" stroke-width="2"/>
<text x="40" y="360" font-size="14" font-family="Inter, Arial, sans-serif" fill="#111827">Pilihan A adalah salah, karena seharusnya 6.</text>
</svg>